<?xml version="1.0" encoding="utf-8"?>
<!-- Generator: Adobe Illustrator 25.2.3, SVG Export Plug-In . SVG Version: 6.00 Build 0)  -->
<svg version="1.1" id="Layer_1" xmlns="http://www.w3.org/2000/svg" xmlns:xlink="http://www.w3.org/1999/xlink" x="0px" y="0px"
	 viewBox="0 0 300 300" style="enable-background:new 0 0 300 300;" xml:space="preserve">
<style type="text/css">
	.st0{fill:#4E724D;}
	.st1{fill:none;stroke:#86B58D;stroke-miterlimit:10;}
	.st2{fill:#7CC579;}
	.st3{fill:#416B46;}
	.st4{fill:#386C3D;}
	.st5{fill:#FFFFFF;}
	.st6{fill:#5D845B;}
	.st7{fill:#86B58D;stroke:#547157;stroke-width:3;stroke-miterlimit:10;}
	.st8{fill:#141A14;}
</style>
<g>
	<path class="st0" d="M244.06,157.45c1.45-5.92-2-20.24-3.11-17.47c-1.1,2.76-15.65,18.75-27.77,22.97
		c-12.12,4.22-16.89,0.44-17.16-1.07c-0.27-1.49,0.18-4.66,7.09-6.4c6.89-1.75,27.1-12.56,30.57-16.26
		c3.44-3.7,3.95-9.46,3.27-19.13c-0.69-9.64-3.02-16.96-3.29-18.45s-12.22,9.38-16.65,16.34c-4.41,6.98-22.06,23.49-30.15,30.1
		c-8.08,6.59-22.53,12.25-24.43,7.26c-1.94-4.97,28.26-23.38,36.66-31.05c8.41-7.69,24.85-28.12,24.36-33.7
		c-0.48-5.58-3.99-8.03-8.29-11.92c-4.29-3.85-6.73-20.41-9.47-18.38c-2.71,2.05-12.53,48.06-18.67,54.01
		c-6.14,5.96-29.09,38.94-32.49,40.04c-3.4,1.13-9.31,8.36-8.02-1.65c1.31-10.03,51.41-81.23,51.58-94.65
		c0.2-13.4-1.51-8.48-6.98-13.18c-5.47-4.66-14.59-15.41-17.23-12.87c-2.62,2.53-0.93,35.17-1.19,48.09
		c-0.27,12.92-21.05,40.81-23.57,38.17c-2.52-2.63,0.17-7.75,4.47-12.55c4.28-4.8,9.58-41.43,9.2-46.52
		c-0.39-5.07-4.39-27.52-5.33-29.91c-0.96-2.41-7.89-3.76-13.73-4.76c-5.85-1.02-19.75-1.12-22.1-2.76
		c-2.36-1.64-5.19-3.17-13.54-3.75c-8.33-0.58-12.04-4.05-12.69-1.87c-0.64,2.18,3.05,11.29,5.49,22.18
		c2.47,10.89,10.18,45.55,4.56,46.02c-5.62,0.49-5.61-14.43-6.14-31.85c-0.54-17.4-11.86-31.85-16.25-36.22
		c-4.38-4.36-21.12-2.91-16.56-0.49c4.56,2.42,12.58,15.62,12.6,24.35c0,8.76-4.46,12.65-7.8,11.18c-3.35-1.47-7.23-26-10.18-31.14
		c-2.98-5.13-30.16-7.49-30.16-7.49s3.65,20.47-3.36,27.36c-7,6.91-2.25,7.6-0.77,13.01c1.49,5.4,18.2,9.64,28.74,13.94
		C66.1,71.3,67.8,75.12,68.6,79.61c0.8,4.5-1.65,2.34-5.8,2.07c-4.18-0.29-5.76-0.52-13.19-1.78c-7.43-1.25-19.87-19.09-27.16-22.45
		c-7.29-3.31,0.45,2.51-1.14,11.02c-1.57,8.52,7.7,17.16,10.27,22.87c2.56,5.72,32.28,19.47,37.1,17.58
		c4.8-1.88,11.25-0.47,17.62,0.7c6.38,1.14,5.19,6.04,1.47,8.22c-3.71,2.19-16.8-4.71-23.9-7.04c-7.09-2.34-16.34-7.9-27.92-9.44
		c-11.6-1.53-9.49-21.47-12.08-21.51c-2.57-0.05-4.59,14.71-6.8,25.4s6.3,17.94,15.06,26.65c8.76,8.73,65.5,9.42,66.95,11.75
		c1.44,2.31,3.55,5.53-5.77,5.25c-9.3-0.28-18.06,2.6-29.49,2.05c-11.42-0.51-24.61-2.29-29.27-2.5
		c-4.65-0.2-21.46-19.34-22.59-17.1c-1.15,2.24,2.63,11.9,4.72,20.8c2.11,8.89,11.16,22.21,14.79,25.16
		c3.62,2.97,19.49-0.39,41.02-3.7c21.54-3.34,19.32-1.4,19.59,0.11c0.27,1.49-4.23,2.29-7.37,4.92c-3.13,2.62-19.11,5.47-24.5,6.93
		c-5.39,1.47-20.04,3.07-31.05,1.93c-11.02-1.12-14.03,5.08-14.18,7.17c-0.13,2.09,7.56,4.82,16.87,10.89
		c9.34,6.06,12.74,4.93,12.74,4.93s14.45-2.58,20.36-4.16c5.89-1.55,16.69-4.51,23.32-7.76c6.62-3.25,13.73-0.91,13.73-0.91
		s1.55,2.84-9.77,11.54c-11.32,8.71-11.62,4.14-24.87,4.96c-13.22,0.81-10.14,0.77-13.79,3.47c-3.62,2.71,2.05,11.49,3.29,18.47
		c1.24,6.98,15.2,10.14,26.99,7.02c11.8-3.13,13.6-13.23,18.47-17.7c4.87-4.47,13.62-18.91,18.13-16.63
		c4.54,2.29-4.66,28.63-10.09,35.79c-5.42,7.13-19.52,20.45-19.07,22.95c0.44,2.48,8.26,0.08,15.24-1.17
		c6.99-1.25,7.04,4.91,13.46,3.26c6.38-1.66,16.02-25.52,16.62-30.78c0.62-5.25,1.71-19.34,5.94-21.63
		c4.21-2.32,9.09,16.4,10.3,23.19c1.21,6.79-8.5,18.69-9.1,23.93c-0.61,5.26,5,7.86,17.43,2.56c12.45-5.3,25.43-22.03,25.67-29.28
		c0.25-7.25-4.99-13.22-11.74-13.85c-6.74-0.66-15.42-8.58-17.13-12.4c-1.72-3.79-9.74-14.22-7.91-15.56
		c1.79-1.37,4.57-0.32,8.14,1.11c3.57,1.41,13.06,11.05,15.3,17.87c2.25,6.8,8.76,8.72,11.56,12.87c2.8,4.11,9.56-1.21,19.45-3.47
		c9.88-2.29,29.6-27.43,32.47-31.54c2.87-4.11-0.61-9.16-1.09-14.74C235.45,172.35,242.59,163.38,244.06,157.45z M57.16,61.56
		c-5.42-1.6-10.4-6.37-15.03-9.15c-4.6-2.78-2.49-8.3-1.96-10.98c0,0,6.99-1.25,10.28,2.82c3.28,4.03,10.77,8.36,14.19,15.98
		C68.05,67.88,62.6,63.18,57.16,61.56z M122.79,85.21c1.68-4.06,8.48-12.14,8.37-16.59c-0.12-4.44-2.98-7.02-1.6-8.98
		c1.36-1.97,6.19,15.43,6.31,20.01c0.14,4.57,1.61,16.67-0.42,18.74c-2.03,2.08-6.88,3.7-6.88,3.7S121.12,89.29,122.79,85.21z
		 M124.25,166.46c-3.86,4.29-9.44,4.77-15.94,5.93c-6.48,1.16-7.4-6.92-8.02-10.43c0,0,8.07-0.91,11.47-2.04
		c3.4-1.11,8.65-0.49,15.55-0.71C134.19,159.02,128.11,162.17,124.25,166.46z M147.07,187.62c-1.24,1.76-6.54-17.37-10.67-27.1
		c-2.98-7.01-11.45-19.03-17.72-25.32c-6.28-6.3-17.93-28.38-20.41-33.6c-2.44-5.12-16.17-20.7-20.31-25.45
		c2.16,2.26,19.81,20.9,22.98,27.9c3.38,7.46,11.4,20.66,17.28,27.62c5.87,6.98,11.69,14.56,14.74,20.2
		C136.03,157.49,148.29,185.85,147.07,187.62z M123.54,129.73c0.47-0.97,4.25-8.97,7.26-13.85c3.2-5.2,13.23-16,14.98-25.71
		c1.52-8.43,2.09-14.09,2.21-15.42c-0.05,1.83-0.41,11.79-1.14,14.96c-0.79,3.51-5.89,13.16-8.83,16.89
		C135.09,110.32,125.65,126.29,123.54,129.73z M209.58,181.27l-16.63,2.97c-4.98,0.89-11.39-6.21-8.35-6.42
		c6.12-0.39,6.95,0.49,12.34,0.98C202.35,179.3,213.58,180.56,209.58,181.27z"/>
</g>
<path class="st5" d="M287.08,149.25c-14.52,53.1-67.06,67.68-106.67,49.19s-55.1-56.49-31.82-106.37
	c10.75-23.04,28.46-26.48,47.82-34.3c22.57-9.11,47.98-32.27,58.26-11.11C269.15,76.44,299.37,104.3,287.08,149.25z"/>
<g>
	<path class="st6" d="M155.44,164.33c0.52,3.07-0.73,6.28,1.49,8.09c2.22,1.81,17.03,12.59,22.98,12.44
		c5.95-0.17,10.56,1.75,11.56-0.86c1-2.63,4.43-4.57,4.73-8.55c0.3-3.98,4.31-10.5,6.14-11.76c1.83-1.27,3.26-2.23,4.47-1.74
		c1.23,0.46-1.84,7.2-2.27,9.49c-0.42,2.3-4.23,7.78-7.97,9.08c-3.75,1.28-5.87,5.23-4.69,9.1c1.18,3.87,10.95,11.06,18.79,12.17
		c7.82,1.12,10.65-1.07,9.54-3.82c-1.09-2.74-8.32-7.79-8.6-11.61c-0.28-3.82-0.19-14.58,2.54-13.93c2.73,0.64,5.37,8.08,6.47,10.82
		c1.09,2.75,9.99,14.24,13.86,14.25c3.89-0.01,3.03-3.34,7.19-3.64c4.15-0.31,8.94-0.11,8.83-1.51c-0.1-1.41-10.03-6.6-14.13-9.69
		c-4.11-3.1-13.11-15.99-10.86-17.86c2.24-1.86,9.28,4.69,12.69,6.41c3.41,1.73,5.88,6.91,13.04,6.94
		c7.15,0.03,14.63-3.62,14.34-7.56c-0.29-3.93,1.67-9.46-0.77-10.41c-2.46-0.94-0.7-1.36-8.34,0.06c-7.65,1.41-7.17,3.92-14.85,0.81
		c-7.68-3.1-7.21-4.84-7.21-4.84s3.71-2.25,7.94-1.43c4.23,0.82,10.8,0.9,14.37,0.91c3.59,0.02,12.17-0.61,12.17-0.61
		s2.1,0.13,6.54-4.44c4.43-4.57,8.41-7.12,8.04-8.22c-0.39-1.1-2.98-4.02-9.09-1.87c-6.1,2.16-14.66,3.34-17.93,3.31
		c-3.28-0.03-12.77,0.67-14.93-0.3c-2.16-0.97-4.83-0.78-4.89-1.62c-0.06-0.85-1.6-1.58,11.13-2.8c12.72-1.23,22.23-1.65,23.86-3.75
		c1.64-2.1,4.88-10.54,4.81-15.62c-0.09-5.08,0.68-10.81-0.29-11.86c-0.97-1.05-7.79,11.61-10.4,12.37
		c-2.62,0.76-9.87,3.57-16.29,5.44c-6.42,1.9-11.81,1.57-17.06,3.03c-5.26,1.46-4.52-0.58-4.03-2.02
		c0.49-1.46,32.66-9.77,36.39-15.7c3.73-5.92,7.53-11.02,4.75-16.46c-2.79-5.44-6.05-13.11-7.5-12.72
		c-1.46,0.38,2.59,10.82-3.79,13.27c-6.36,2.45-10.83,6.74-14.53,8.99c-3.71,2.25-10.16,7.8-12.59,7.14
		c-2.43-0.66-3.81-3.12-0.34-4.63c3.46-1.52,6.92-3.19,9.92-2.85c3.01,0.34,17.95-11.22,18.58-14.66c0.64-3.43,4.68-9.38,2.57-13.75
		c-2.12-4.36,1.45-8.58-2.22-5.78c-3.66,2.83-8.19,14.18-12.23,15.89c-4.04,1.71-4.91,2.06-7.24,2.8c-2.32,0.73-3.4,2.23-3.59-0.3
		c-0.19-2.53,0.24-4.82,5.62-8.61c5.37-3.79,14.27-8.41,14.35-11.53c0.07-3.12,2.67-4.15-2.3-6.9c-4.97-2.73-5.83-14.26-5.83-14.26
		s-15.12,5.07-16.08,8.26c-0.94,3.18,0.36,16.93-1.33,18.19c-1.69,1.26-4.78-0.22-6.04-4.93c-1.24-4.71,1.43-12.93,3.68-14.88
		c2.25-1.94-7.48-0.38-9.35,2.58c-1.87,2.97-6.24,12.33-4.06,21.78c2.19,9.45,4.33,17.48,1.07,18.01
		c-3.26,0.53-3.84-19.21-3.99-25.42c-0.17-6.21,0.62-11.63-0.05-12.71c-0.68-1.08-2.29,1.3-6.95,2.78c-4.66,1.48-6.06,2.7-7.16,3.92
		c-1.11,1.22-8.99,3.21-12.17,4.58c-3.18,1.35-6.93,3.05-7.13,4.48c-0.19,1.42,0.75,14.07,1.25,16.85
		c0.51,2.79,8.77,21.78,11.89,23.76c3.13,1.98,5.39,4.36,4.34,6.13c-1.06,1.77-16.86-10.33-18.87-17.25
		c-2-6.92-5.71-24.73-7.56-25.73c-1.86-1-5.51,6.07-7.95,9.34c-2.44,3.29-4.11,0.88-2.08,8.07c2.02,7.21,40.7,38.53,42.88,43.74
		c2.17,5.21-2.23,2.14-4.33,2.01c-2.09-0.12-19.86-14.66-24.21-17.01c-4.34-2.34-16.51-25.74-18.35-26.47
		c-1.85-0.71-0.87,8.55-2.75,11.22c-1.89,2.69-3.53,4.51-3.01,7.58c0.52,3.07,12.79,11.77,18.67,14.73
		c5.87,2.95,25.68,8.64,25.29,11.58c-0.37,2.95-9.39,1.93-14.93-0.49c-5.55-2.43-17.95-8.85-21.45-11.99
		c-3.51-3.12-11.87-7.31-11.8-6.47c0.06,0.84-0.22,5.1,0.77,10.39c0.99,5.3,2.11,8.33,4.6,9.84c2.5,1.5,15.54,4.49,19.71,4.47
		c4.18-0.03,4.88,1.62,4.95,2.46c0.06,0.85-2.11,3.56-9.61,2.98c-7.49-0.58-18.06-7.15-19.08-8.48c-1.03-1.34-0.95,6.85,0.73,9.84
		C149.56,157.43,154.9,161.26,155.44,164.33z M235.99,76.97c0.86-4.58,4.5-7.96,5.78-10.59c1.29-2.65,5.44-2.96,5.44-2.96
		c0.69,1.37,2.67,4.05,0.46,6.19c-2.23,2.14-4.38,5.41-7.24,7.03C237.58,78.28,235.15,81.57,235.99,76.97z M205.63,108.47
		c0,0-2.99-0.19-4.44-1.03c-1.45-0.83-2.35-7.55-2.92-10.03c-0.59-2.48-0.33-12.53,0.72-11.66c1.06,0.86-0.19,2.65,0.37,5.06
		c0.58,2.41,5.6,5.81,7.14,7.76C208.04,100.53,205.63,108.47,205.63,108.47z M214.53,139.04c3.95-0.85,6.85-1.91,8.94-1.8
		c2.1,0.13,6.81-0.5,6.81-0.5c0.15,1.97,0.78,6.45-3.07,6.74c-3.86,0.29-7.1,0.81-9.91-0.96
		C214.49,140.75,210.59,139.9,214.53,139.04z M210.26,135.88c0.93-3.46,3.15-8.36,5.49-12.94c2.35-4.57,5.02-12.8,5.87-17.29
		c0.8-4.21,8.17-16.72,9.08-18.24c-1.67,3.14-7.25,13.45-7.91,16.55c-0.66,3.16-4.13,16.68-6.8,20.95
		c-2.67,4.26-5.76,11.92-6.45,16.11c-0.96,5.82-1.24,16.86-2.19,16.09C206.4,156.32,209.32,139.34,210.26,135.88z M200.9,112.21
		c-2.2-1.59-6.49-6.07-7.44-7.86c-0.87-1.6-2.5-6.92-2.79-7.9c0.26,0.7,1.4,3.67,3.47,7.99c2.38,4.99,9.63,9.4,12.2,11.75
		c2.41,2.21,5.7,5.98,6.11,6.44C210.75,121.09,203.1,113.81,200.9,112.21z M177.73,159.34c2.99-1.02,3.34-1.61,6.88-2.26
		c1.76-0.32-0.87,4.4-3.83,4.62l-9.88,0.73C168.52,162.62,174.72,160.37,177.73,159.34z"/>
</g>
<path class="st8" d="M24.51,220.18c0,0-4.52,1.9-8.02,0c-3.5-1.9-5.96-5.19-4.11-8.2c1.85-3.01,6.58-7.41,9.25-9.33
	c2.67-1.93,28.99-25.65,35.16-28.07c6.17-2.42,21.18-8.98,24.67-8.56s6.35,0.85,6.56,2.75c0.22,1.9-1.84,9.31-2.25,9.1
	c-0.41-0.21,17.06-1.8,19.94-1.27c2.88,0.53,6.78,1.59,7.3,1.48c0.51-0.11,5.04-0.63,7.3-0.63c2.26,0,3.6,0,3.6,0
	s6.07-2.33,7.3-2.22c1.23,0.11,5.65-1.06,8.22-2.22c2.57-1.16,4.21-1.8,4.21-1.8s1.95-4.34,4.01-4.76c2.06-0.42,4.83-1.06,6.58,0
	c1.75,1.06,7.5,10.05,7.5,10.05s3.8,2.64,5.76,3.28c1.95,0.63,3.39,1.9,3.39,1.9s1.54,0.21,2.78,0.95c1.23,0.74,2.06,2.75,2.06,3.28
	s0,1.59,0,1.59s1.85,3.49,2.06,4.66c0.21,1.16-0.62,5.5-1.13,6.98c-0.51,1.48-2.98,4.66-3.7,5.4s-3.08,2.64-3.6,3.07
	c-0.51,0.42-11.41,5.92-13,6.56c-1.59,0.63-3.34,1.22-4.16,2.01c-0.82,0.79-6.12,4.13-8.33,4.87c-2.21,0.74-4.52,2.38-4.52,2.38
	s2.52,0.79,4.37,1.11c1.85,0.32,3.55,1.27,4.16,2.27c0.62,1.01,1.8,3.33,2.57,3.65c0.77,0.32,1.23,0.9,2.83,0.74
	c1.59-0.16,1.9-1.01,2.98-0.85s2.16,0.74,2.31,1.22c0.15,0.48,2.31,1.8,2.93,2.33c0.62,0.53,1.39,1.69,1.13,2.54
	c-0.26,0.85-1.75,1.53-3.14,1.48s-2.57-1.59-2.78-1.85s-1.54-1.64-2.26-1.53c-0.72,0.11-1.9,1.01-2.21,1.32
	c-0.31,0.32-1.54,1.11-2.67,1.06c-1.13-0.05-1.9-1.06-1.9-1.06s2,4.02,2.21,4.39c0.21,0.37,4.47,5.82,4.68,5.98
	c0.21,0.16,0.98,0.21,1.39,0.74c0.41,0.53,0.87,1.69,0.82,2.27c-0.05,0.58,0.15,1.27,0.15,1.27s0.98,1.06,1.44,1.53
	s2.11,2.27,2.11,3.28s-0.82,2.8-2.06,3.07s-3.65,0.37-4.52-1.38c-0.87-1.75-1.08-5.08-1.08-5.77s-1.08-1.8-1.64-2.22
	c-0.57-0.42-4.32-4.66-5.19-5.82c-0.87-1.16-4.16-7.3-6.22-7.35c-2.06-0.05-3.65-0.58-5.14,0.58c-1.49,1.16-3.08,2.59-3.08,2.96
	c0,0.37,0,1.32-0.1,2.22c-0.1,0.9-0.31,2.01-0.51,2.27c-0.21,0.26-0.46,0.48-0.21,0.85c0.26,0.37,0.72,0.9,0.51,1.53
	c-0.21,0.63,0.77,1.75-2.88,1.9s-4.68-0.79-4.68-2.01s0.72-2.01,1.28-2.33s1.03-0.58,1.03-0.58s0-1.75,0.51-2.54
	s1.08-1.75,0.98-2.22s-0.93-4.23-1.23-4.87c-0.31-0.63-0.62-1.69-1.59-1.59c-0.98,0.11-2.62,2.43-3.5,3.02
	c-0.87,0.58-8.12,6.29-12.18,7.72s-5.24,2.12-5.4,3.49c-0.15,1.38,3.96,7.19,4.42,8.57c0.46,1.38,4.93,8.89,5.4,9.84
	c0.46,0.95,1.9,4.76,3.8,4.6s4.57-1.9,5.14-2.54s3.19-5.29,3.85-5.87c0.67-0.58,1.03-2.43,1.39-2.96c0.36-0.53,2.47-1.43,3.29-1.16
	s3.03,0.85,3.5,1.96c0.46,1.11,0.82,3.02,0,3.49c-0.82,0.48-6.01,2.86-6.99,4.81s-2.57,4.39-2.62,4.97s7.35,1.27,8.89,1.38
	c1.54,0.11,5.35,0,6.68-0.63c1.34-0.63,4.52-1.96,6.68-2.22s3.6-0.11,3.85-0.11s0.87-0.85,2.16-0.85c1.28,0,3.6,0.79,4.63,2.22
	c1.03,1.43,0.87,2.12,0.67,2.8c-0.21,0.69-2.06,1.69-3.14,1.75c-1.08,0.05-3.08-1.85-4.27-1.8c-1.18,0.05-5.09,1.06-6.17,1.8
	c-1.08,0.74-3.85,1.74-6.89,1.96c-3.03,0.21-5.45,0.32-6.53,1.22c-1.08,0.9-0.1,3.07-0.1,3.07s1.64,0.79,2,1.06s0.26,0.63,1.13,0.58
	c0.87-0.05,1.95-1.01,2.67-0.95c0.72,0.05,1.8,0.53,2.36,0.69c0.57,0.16,2.36-0.63,3.44-0.63c1.08,0,1.95,0.11,3.08,0.69
	s1.18,0.95,0.62,2.01s-2.72,2.38-4.73,2.38c-2,0-3.5-0.63-4.47-0.58c-0.98,0.05-1.03,1.85-3.7,1.85c-2.67,0-4.37-0.63-4.88-1.32
	c-0.51-0.69-1.85-2.38-4.01-2.33s-5.55-1.22-6.48-1.8c-0.93-0.58-8.07-2.22-8.94-2.17c-0.87,0.05-0.36,2.06-0.62,2.49
	c-0.26,0.42-1.85,2.22-3.08,2.8c-1.23,0.58-3.6-0.32-6.07-1.22s-6.07-2.33-7.71-2.22s-2.52,0.21-2.78,0.48
	c-0.26,0.26,0.82,0.63,1.03,1.22c0.21,0.58-0.1,3.76-1.54,4.5c-1.44,0.74-3.5,1.27-5.04-0.37c-1.54-1.64-2.42-3.39-3.96-3.54
	s-2.83-0.48-3.29-0.85s-8.38-5.77-10.64-6.14c-2.26-0.37-25.6-10.74-28.22-12.48c-2.62-1.75-11.98-7.78-13.41-9.05
	c-1.44-1.27-9.51-10.58-10.02-11.74c-0.51-1.16-2.36-5.55-1.23-7.99c1.13-2.43,2-4.13,4.21-4.23s7.86,0.05,8.58,0.69
	c0.72,0.63-0.62-1.53-0.62-3.23s-0.67-1.27-1.13-3.84C23.33,224.73,24.51,220.18,24.51,220.18z"/>
</svg>
