<?xml version="1.0" encoding="utf-8"?>
<!-- Generator: Adobe Illustrator 25.2.3, SVG Export Plug-In . SVG Version: 6.00 Build 0)  -->
<svg version="1.1" id="Layer_1" xmlns="http://www.w3.org/2000/svg" xmlns:xlink="http://www.w3.org/1999/xlink" x="0px" y="0px"
	 viewBox="0 0 300 300" style="enable-background:new 0 0 300 300;" xml:space="preserve">
<style type="text/css">
	.st0{fill:#285DE5;}
	.st1{fill:#F16C6D;}
	.st2{fill:#FFFFFF;}
	.st3{fill:#FFFFFF;stroke:#F16C6D;stroke-miterlimit:10;}
	.st4{fill:#231F20;}
	.st5{fill:#23315F;stroke:#FFFFFF;stroke-miterlimit:10;}
</style>
<circle class="st1" cx="150" cy="148.47" r="140.57"/>
<path class="st3" d="M268.43,143.26L178,143.04c-5.69-0.01-10.39-2.9-10.6-6.52l-1.09-18.65c-0.43-7.32-1.87-11.88-4.36-13.7
	c-2.49-1.81-7.8-2.74-15.92-2.75c-9.2-0.03-14.96,1.06-17.3,3.27c-2.34,2.19-3.3,6.95-2.88,14.29l3.91,67.21
	c0.41,7.03,1.91,11.62,4.5,13.77c2.6,2.15,8.23,3.24,16.88,3.26c8.3,0.02,13.66-1.05,16.11-3.19c2.43-2.14,3.42-7.19,2.96-15.13
	l-0.66-11.28c-0.22-3.78,4.52-6.9,10.47-6.89l100.67,0.25l0.33,5.64c0.86,14.98-1.65,25.59-7.55,31.84
	c-5.91,6.25-19.45,11.72-40.64,16.38c-21.18,4.66-47.5,6.95-78.93,6.88c-32.68-0.08-59.72-2.13-81.14-6.18
	c-21.43-4.04-35.8-9.6-43.09-16.68c-7.3-7.07-11.36-17.71-12.18-31.89l-2.47-42.27c-0.61-10.43,0-18.24,1.81-23.46
	c1.82-5.21,7.83-10.22,18.06-15.02c10.23-4.79,24.57-8.56,43.05-11.28c18.47-2.73,39.81-4.07,64-4.01
	c32.85,0.08,60.09,2.28,81.7,6.63c21.63,4.33,35.97,9.71,43.05,16.12c7.08,6.41,11.03,16.37,11.8,29.87l0.4,6.84
	C279.12,140.15,274.38,143.27,268.43,143.26z"/>
<g>
	<path class="st4" d="M147.95,119.49l-1.9,74.62c-0.08,3.3-3.88,5.88-8.48,5.75l-10.78-0.29c-4.6-0.12-8.26-2.89-8.17-6.19
		l1.3-52.48l-11.3,53c-0.63,2.95-4.21,5.07-8.38,4.96l-4.96-0.13c-4.14-0.11-7.59-2.38-8.11-5.34L78,141.14l-1.33,51.14
		c-0.09,3.3-3.88,5.87-8.48,5.75l-10.78-0.29c-4.6-0.12-8.26-2.9-8.17-6.19l1.9-74.62c0.08-3.3,3.88-5.88,8.48-5.75l25.16,0.67
		c4.11,0.11,7.56,2.33,8.1,5.26c0.75,4.03,1.5,8.5,2.27,13.43l3.9,22.14l7.18-35.04c0.61-2.97,4.2-5.11,8.39-5l25.17,0.67
		C144.38,113.42,148.04,116.19,147.95,119.49z"/>
</g>
<g>
	<path class="st4" d="M241.47,113.29v59.62c0,6.76-0.34,11.51-1.01,14.24c-0.67,2.74-2.67,5.55-5.99,8.43
		c-3.32,2.88-7.69,5.07-13.11,6.56c-5.43,1.49-11.82,2.23-19.18,2.23c-8.15,0-15.35-0.88-21.58-2.65c-6.24-1.76-10.91-4.06-14-6.89
		c-3.09-2.83-4.92-5.81-5.48-8.95c-0.56-3.14-0.84-9.74-0.84-19.81v-52.79h35.5v66.89c0,3.89,0.32,6.38,0.97,7.47
		c0.65,1.08,1.95,1.63,3.92,1.63c2.25,0,3.7-0.6,4.34-1.79c0.65-1.19,0.97-4.01,0.97-8.46v-65.74H241.47z"/>
</g>
<path class="st5" d="M178.19,138.04l6.96,10.19l-2.62,5.44l12.47,6.64l-14.79,9.12l-4.22-2.17c-2.85,6.14-6.49,10.57-10.91,13.3
	c-4.64,2.86-9.2,3.6-13.7,2.24s-8.14-4.1-10.95-8.21c-2.25-3.28-3.27-6.31-3.07-9.09c0.2-2.78,1.38-5.66,3.53-8.65
	c-6.17-0.26-10.93-2.83-14.26-7.71c-2.87-4.2-3.68-8.51-2.43-12.93c1.25-4.41,4.51-8.25,9.79-11.5c4.74-2.92,9.34-3.97,13.78-3.14
	c4.45,0.83,8,3.19,10.65,7.06c2.79,4.09,3.6,8.73,2.44,13.94l12.21,6.14L178.19,138.04z M165.87,163.8l-10.73-4.97
	c-0.82,2.91-0.56,5.35,0.78,7.32c0.97,1.42,2.01,2.29,3.11,2.62c1.1,0.33,2.26,0.12,3.47-0.62
	C163.79,167.35,164.92,165.9,165.87,163.8z M146.35,142.67c0.27-3.33-0.28-6-1.66-8.03c-0.6-0.88-1.41-1.51-2.43-1.91
	c-1.02-0.4-2.01-0.31-2.96,0.28c-0.87,0.53-1.34,1.22-1.41,2.04c-0.08,0.83,0.27,1.81,1.04,2.93
	C140.53,140.32,143,141.89,146.35,142.67z"/>
</svg>
