<?xml version="1.0" encoding="utf-8"?>
<!-- Generator: Adobe Illustrator 25.2.3, SVG Export Plug-In . SVG Version: 6.00 Build 0)  -->
<svg version="1.1" id="Layer_1" xmlns="http://www.w3.org/2000/svg" xmlns:xlink="http://www.w3.org/1999/xlink" x="0px" y="0px"
	 viewBox="0 0 300 300" style="enable-background:new 0 0 300 300;" xml:space="preserve">
<style type="text/css">
	.st0{fill:#8DD1C4;stroke:#0F262B;stroke-width:2;stroke-miterlimit:10;}
</style>
<g>
	<ellipse class="st0" cx="227.35" cy="31.74" rx="31.52" ry="26.83"/>
	<path class="st0" d="M173.76,69.72c1.62-1.95,7.61-6.85,13.54-9.11c8.31-3.17,18.43-1.68,32.63,4.69
		c15.07,6.75,16.37,19.39,14.58,38.84c-1.43,15.5-14.05,44.4-11.81,54.72c1.98,9.12,45.62,84.44,48.79,95.92
		c3.17,11.48-4.89,14.55-10.45,15.87c-5.55,1.32-8.59-1.35-17.32-10.81c-8.73-9.46-62.71-87.93-66.32-97.75
		c-8.65-23.5,9.6-55.25,2.29-60.39c-4.41-3.1-31.77,46.09-42.03,55.12c-4.61,4.05-10.44,2.53-10.44,2.53
		c-16.66,19.27-41.36,54.59-55.02,70.38c-4.13,4.77-3.34,0-9.35-2.99c-5.41-2.69-20.61-4.28-29.36-1.69
		c-6.59,1.95-8.54,6.08-12.68,9.35c-8.39,6.62-17.7,12.78-17.7-8.64c0-17.6,53.79-77.04,67.27-82.45
		c20.55-8.24,30.91,20.63,43.24,13.51c8.46-4.88-6.39-4.18,8.16-22.02C135.09,117.85,150.51,97.72,173.76,69.72z"/>
	<path class="st0" d="M175.18,168.52l20.7,30.4c0,0,1.12,6.28-10.78,21.14c-11.9,14.86-36.5,48.1-43.49,51.17
		c-4.24,1.86-18.79-0.71-18.79-9.49c0-8.78,28.01-41.68,36.27-53.7C166.22,197.64,175.18,168.52,175.18,168.52z"/>
	<path class="st0" d="M242.72,108.11c-1.25-2.41-4.51-1.49-4.68,1.02c-0.46,6.67-6.3,23.23-6.26,26.23
		c0.04,2.65,41.48,26.87,51.4,29.36c4.6,1.16,11.43-1.51,9.95-9.46c-1.13-6.03-21.08-15.97-30.31-23.34
		C253.57,124.56,243.99,109.84,242.72,108.11z"/>
	<ellipse class="st0" cx="43.02" cy="250.95" rx="24.49" ry="20.85"/>
</g>
</svg>
